<?xml version="1.0" encoding="UTF-8" standalone="no"?>
<!DOCTYPE svg PUBLIC "-//W3C//DTD SVG 1.1//EN" "http://www.w3.org/Graphics/SVG/1.1/DTD/svg11.dtd">
<svg width="100%" height="100%" viewBox="0 0 1186 788" version="1.1" xmlns="http://www.w3.org/2000/svg" xmlns:xlink="http://www.w3.org/1999/xlink" xml:space="preserve" xmlns:serif="http://www.serif.com/" style="fill-rule:evenodd;clip-rule:evenodd;stroke-linejoin:round;stroke-miterlimit:2;">
    <g transform="matrix(1,0,0,1,-2663,-9283)">
        <g id="bionet----Logo-weiß-mit-Subline-transparenter-Hintergrund" serif:id="bionet -- Logo weiß mit Subline transparenter Hintergrund" transform="matrix(0.478011,-5.12496e-17,1.25491e-16,0.224277,2663.36,9283.96)">
            <rect x="0" y="0" width="2480.32" height="3507.87" style="fill:none;"/>
            <g transform="matrix(-1.70145e-16,1.43122,-0.723945,3.06972e-16,2764.3,-252.088)">
                <g transform="matrix(-1.56651,-1.61321e-16,8.69587e-17,-1.09961,2526.31,3197.61)">
                    <path d="M730.757,838.249C730.757,730.419 730.64,572.285 730.757,520.752C776.646,504.375 973.68,414.718 1063,544.449C1106.39,607.481 1102.9,705.213 1055.2,762.559C1028.15,795.084 992.643,807.676 959.061,800.982C962.545,813.812 964.443,826.298 964.443,838.249C964.443,923.464 912.088,992.647 847.6,992.647C783.113,992.647 730.757,923.464 730.757,838.249ZM784.924,838.249C784.924,883.959 813.008,921.071 847.6,921.071C882.192,921.071 915.578,883.419 910.277,838.249C907.827,817.372 905.108,774.998 917.216,755.532C929.324,736.067 948.285,726.448 967.14,730.206C985.165,733.799 1004.23,727.072 1018.75,709.614C1044.34,678.853 1046.21,626.428 1022.93,592.617C997.426,555.57 958.646,547.222 920.36,546.923C870.639,546.534 820.356,561.788 784.875,574.659C784.856,645.81 784.924,756.497 784.924,838.249Z" style="fill:white;"/>
                </g>
                <g transform="matrix(0.689452,-1.10734,0.903426,0.483961,465.763,3181.59)">
                    <path d="M715.369,838.249C715.369,730.399 716.358,505.423 716.358,505.423C716.358,505.423 838.605,454.372 920.771,455.014C978.764,455.467 1035.75,474.651 1074.38,530.766C1123.49,602.099 1119.54,712.701 1065.56,777.599C1040.88,807.268 1009.99,822.286 979.031,823.027C979.561,828.175 979.831,833.253 979.831,838.249C979.831,934.686 920.58,1012.98 847.6,1012.98C774.62,1012.98 715.369,934.686 715.369,838.249ZM746.145,838.249C746.145,912.241 791.605,972.314 847.6,972.314C903.595,972.314 949.056,912.241 949.056,838.249C949.056,828.494 947.421,818.323 944.577,807.85C942.748,801.113 943.734,793.601 947.173,788.071C950.613,782.541 956,779.809 961.356,780.877C990.519,786.689 1021.35,775.763 1044.85,747.518C1086.26,697.725 1089.3,612.864 1051.62,558.132C1018.8,510.46 969.857,496.065 920.589,495.68C850.939,495.136 780.167,523.02 746.12,536.114C746.047,598.774 746.145,739.577 746.145,838.249Z" style="fill:white;"/>
                </g>
                <g transform="matrix(0.639724,1.13272,-0.924138,0.449055,1403.84,1617.08)">
                    <path d="M715.369,838.249C715.369,730.399 716.358,505.423 716.358,505.423C716.358,505.423 838.605,454.372 920.771,455.014C978.764,455.467 1035.75,474.651 1074.38,530.766C1123.49,602.099 1119.54,712.701 1065.56,777.599C1040.88,807.268 1009.99,822.286 979.031,823.027C979.561,828.175 979.831,833.253 979.831,838.249C979.831,934.686 920.58,1012.98 847.6,1012.98C774.62,1012.98 715.369,934.686 715.369,838.249ZM746.145,838.249C746.145,912.241 791.605,972.314 847.6,972.314C903.595,972.314 949.056,912.241 949.056,838.249C949.056,828.494 947.421,818.323 944.577,807.85C942.748,801.113 943.734,793.601 947.173,788.071C950.613,782.541 956,779.809 961.356,780.877C990.519,786.689 1021.35,775.763 1044.85,747.518C1086.26,697.725 1089.3,612.864 1051.62,558.132C1018.8,510.46 969.857,496.065 920.589,495.68C850.939,495.136 780.167,523.02 746.12,536.114C746.047,598.774 746.145,739.577 746.145,838.249Z" style="fill:white;"/>
                </g>
                <g transform="matrix(6.11104e-17,-0.925723,0.998009,5.66842e-17,492.861,3034.04)">
                    <rect x="1066.36" y="527.025" width="84.134" height="363.543" style="fill:white;fill-rule:nonzero;"/>
                </g>
                <g transform="matrix(6.11104e-17,-0.925723,0.998009,5.66842e-17,492.861,3034.04)">
                    <path d="M1413.29,896.8C1384.55,896.8 1357.98,892.126 1333.57,882.777C1309.16,873.429 1288.04,860.272 1270.21,843.307C1252.38,826.342 1238.53,806.434 1228.66,783.582C1218.79,760.731 1213.86,735.802 1213.86,708.796C1213.86,681.79 1218.79,656.862 1228.66,634.01C1238.53,611.159 1252.46,591.251 1270.47,574.286C1288.47,557.32 1309.59,544.163 1333.83,534.815C1358.06,525.467 1384.38,520.793 1412.77,520.793C1441.5,520.793 1467.9,525.467 1491.97,534.815C1516.03,544.163 1536.98,557.32 1554.81,574.286C1572.64,591.251 1586.58,611.073 1596.62,633.751C1606.66,656.429 1611.68,681.444 1611.68,708.796C1611.68,735.802 1606.66,760.818 1596.62,783.842C1586.58,806.866 1572.64,826.775 1554.81,843.567C1536.98,860.359 1516.03,873.429 1491.97,882.777C1467.9,892.126 1441.68,896.8 1413.29,896.8ZM1412.77,825.13C1429.04,825.13 1444.01,822.36 1457.69,816.82C1471.37,811.281 1483.4,803.317 1493.79,792.931C1504.17,782.544 1512.22,770.252 1517.93,756.057C1523.65,741.861 1526.5,726.108 1526.5,708.796C1526.5,691.485 1523.65,675.731 1517.93,661.536C1512.22,647.34 1504.26,635.049 1494.05,624.662C1483.83,614.275 1471.8,606.312 1457.95,600.772C1444.1,595.233 1429.04,592.463 1412.77,592.463C1396.49,592.463 1381.52,595.233 1367.84,600.772C1354.17,606.312 1342.14,614.275 1331.75,624.662C1321.36,635.049 1313.31,647.34 1307.6,661.536C1301.89,675.731 1299.03,691.485 1299.03,708.796C1299.03,725.762 1301.89,741.429 1307.6,755.797C1313.31,770.166 1321.28,782.544 1331.49,792.931C1341.7,803.317 1353.73,811.281 1367.58,816.82C1381.43,822.36 1396.49,825.13 1412.77,825.13Z" style="fill:white;fill-rule:nonzero;"/>
                </g>
                <g transform="matrix(6.11104e-17,-0.925723,0.998009,5.66842e-17,954.009,3596.44)">
                    <path d="M1675.04,890.568L1675.04,527.025L1744.63,527.025L1959.12,788.776L1925.36,788.776L1925.36,527.025L2008.46,527.025L2008.46,890.568L1939.38,890.568L1724.38,628.817L1758.13,628.817L1758.13,890.568L1675.04,890.568Z" style="fill:white;fill-rule:nonzero;"/>
                </g>
                <g transform="matrix(6.11104e-17,-0.925723,0.998009,5.66842e-17,954.009,3544.11)">
                    <path d="M2518.46,890.568L2518.46,595.579L2417.82,595.579L2417.82,527.025L2718.92,527.025L2718.92,595.579L2602.59,595.579L2602.59,890.568L2518.46,890.568Z" style="fill:white;fill-rule:nonzero;"/>
                </g>
                <g transform="matrix(8.18508e-17,-1.23991,1.33672,7.59223e-17,656.608,2971.44)">
                    <path d="M1196.2,894.203C1165.38,894.203 1138.46,888.058 1115.44,875.766C1092.42,863.475 1074.59,846.596 1061.95,825.13C1049.31,803.664 1042.99,779.254 1042.99,751.902C1042.99,724.204 1049.14,699.708 1061.43,678.415C1073.72,657.121 1090.68,640.416 1112.33,628.298C1133.96,616.18 1158.63,610.121 1186.33,610.121C1213.34,610.121 1237.4,616.006 1258.52,627.778C1279.64,639.55 1296.26,656.169 1308.38,677.636C1320.5,699.102 1326.56,724.377 1326.56,753.46C1326.56,756.23 1326.47,759.346 1326.3,762.808C1326.12,766.271 1325.86,769.56 1325.52,772.676L1094.41,772.676L1094.41,729.57L1291.24,729.57L1265.79,743.073C1266.14,727.147 1262.85,713.124 1255.92,701.006C1249,688.888 1239.57,679.367 1227.62,672.442C1215.67,665.517 1201.91,662.055 1186.33,662.055C1170.4,662.055 1156.47,665.517 1144.52,672.442C1132.58,679.367 1123.23,688.975 1116.48,701.266C1109.73,713.557 1106.35,728.012 1106.35,744.631L1106.35,755.018C1106.35,771.637 1110.16,786.352 1117.78,799.163C1125.39,811.973 1136.13,821.841 1149.98,828.765C1163.83,835.69 1179.75,839.152 1197.76,839.152C1213.34,839.152 1227.36,836.729 1239.82,831.882C1252.29,827.034 1263.37,819.417 1273.06,809.03L1307.86,849.02C1295.39,863.562 1279.73,874.728 1260.86,882.518C1241.99,890.308 1220.43,894.203 1196.2,894.203Z" style="fill:white;fill-rule:nonzero;"/>
                </g>
            </g>
        </g>
    </g>
</svg>
